<?xml version="1.0" standalone="no"?>
<!DOCTYPE svg PUBLIC "-//W3C//DTD SVG 20010904//EN"
 "http://www.w3.org/TR/2001/REC-SVG-20010904/DTD/svg10.dtd">
<svg version="1.0" xmlns="http://www.w3.org/2000/svg"
 width="340.000000pt" height="340.000000pt" viewBox="0 0 340.000000 340.000000"
 preserveAspectRatio="xMidYMid meet">
<metadata>
Created by potrace 1.11, written by Peter Selinger 2001-2013
</metadata>
<g transform="translate(0.000000,340.000000) scale(0.100000,-0.100000)"
fill="#000000" stroke="none">
<path d="M950 2821 c-65 -16 -135 -41 -205 -72 -60 -27 -213 -152 -283 -232
-91 -103 -213 -357 -252 -522 -6 -27 -19 -77 -28 -110 -13 -47 -17 -101 -17
-250 1 -171 4 -201 28 -300 103 -421 372 -667 771 -706 103 -11 137 -10 231 4
119 17 211 43 271 77 142 77 185 110 345 260 71 66 76 124 11 122 -24 0 -45
-15 -94 -65 -57 -58 -92 -88 -182 -154 -38 -28 -198 -107 -246 -121 -148 -45
-323 -42 -489 8 -120 36 -146 49 -243 120 -44 31 -107 103 -166 190 -34 48
-87 174 -102 240 -7 30 -17 71 -22 90 -23 91 -20 371 6 480 3 14 9 41 12 60
37 210 200 490 367 631 125 105 295 169 447 169 99 0 142 -16 209 -77 67 -61
99 -67 115 -22 18 51 -66 139 -167 175 -68 24 -229 27 -317 5z"/>
<path d="M1112 2248 c-14 -14 -15 -47 -2 -68 7 -11 35 -16 120 -18 l110 -4 0
-460 c0 -297 4 -466 10 -479 16 -29 76 -27 84 4 3 12 6 120 6 240 l0 217 125
0 c149 0 180 -10 225 -72 18 -24 66 -113 107 -198 41 -85 79 -164 85 -175 7
-11 29 -52 50 -92 82 -153 184 -278 283 -347 57 -41 79 -52 170 -91 58 -25
203 -36 305 -24 88 11 236 64 275 99 71 65 135 141 135 162 0 7 6 22 14 33 16
24 46 170 46 227 0 53 -18 152 -37 198 -64 161 -162 265 -300 317 -154 59
-396 15 -574 -104 -179 -120 -198 -139 -184 -182 14 -45 61 -32 155 44 61 49
216 131 277 147 82 21 206 26 258 11 116 -35 198 -100 248 -198 43 -84 52
-124 51 -235 0 -86 -4 -115 -23 -160 -38 -93 -73 -138 -141 -185 -80 -55 -154
-76 -284 -80 -82 -2 -111 1 -165 20 -114 39 -123 44 -218 123 -33 27 -107 116
-152 181 -24 37 -251 485 -251 498 0 4 -23 35 -50 67 l-49 60 48 50 c76 81 82
94 84 184 1 73 -2 85 -33 147 -27 54 -45 75 -86 102 -29 19 -70 39 -91 44 -61
14 -617 11 -631 -3z m634 -107 c71 -43 98 -86 109 -172 6 -47 3 -59 -17 -89
-14 -20 -48 -48 -83 -67 -59 -32 -63 -32 -187 -33 l-128 0 0 190 0 190 138 0
c117 0 142 -3 168 -19z"/>
</g>
</svg>
